# 3D Arrow Model
# Shaft
v -0.1 -0.1 0.0
v 0.1 -0.1 0.0
v -0.1 0.1 0.0
v 0.1 0.1 0.0
v -0.1 -0.1 1.5
v 0.1 -0.1 1.5
v -0.1 0.1 1.5
v 0.1 0.1 1.5

# Head base
v -0.4 -0.2 1.5
v 0.4 -0.2 1.5
v -0.4 0.2 1.5
v 0.4 0.2 1.5

# Head tip
v 0.0 0.0 2.5

vn 0 -1 0
vn 0 1 0
vn -1 0 0
vn 1 0 0
vn 0 0 -1

# Shaft faces
f 1//1 2//1 6//1 5//1
f 3//2 7//2 8//2 4//2
f 1//3 5//3 7//3 3//3
f 2//4 4//4 8//4 6//4
f 1//5 3//5 4//5 2//5

# Head faces
f 9//1 10//1 13//1
f 10//4 12//4 13//4
f 12//2 11//2 13//2
f 11//3 9//3 13//3
f 9//5 11//5 12//5 10//5
